# xmcd CD database file
#
# Track frame offsets:
#	150
#	32890
#	52735
#	61247
#	65450
#	88797
#	97585
#	117422
#	137615
#	155197
#	185272
#
# Disc length: 2637 seconds
#
# Revision: 3
# Processed by: cddbd v1.5PL3 Copyright (c) Steve Scherf et al.
# Submitted via: CDex 1.50beta9
#
DISCID=8c0a4b0b
DTITLE=hebe camargo - a história da vida de são jorge
DYEAR=1900
DGENRE=religiosa
TTITLE0=vencendo o dragão com a força de deus: protetor contra o mal
TTITLE1=oração a são jorge: contra os males
TTITLE2=oração da ave-maria
TTITLE3=oração daqueles que têm o nome de jorge ou jorgina
TTITLE4=são jorge: uma vida combatendo o pecado, as heresias e injustiças contra o povo
TTITLE5=são jorge na igreja ocidental
TTITLE6=são jorge, padroeiro da inglaterra
TTITLE7=são jorge e o dragão
TTITLE8=alguns milagres de são jorge: a. o fim da tempestade b. libertando gênova da peste c. uma cura milagrosa
TTITLE9=são jorge: o soldado de deus
TTITLE10=martírio de são jorge
EXTD=
EXTT0=
EXTT1=
EXTT2=
EXTT3=
EXTT4=
EXTT5=
EXTT6=
EXTT7=
EXTT8=
EXTT9=
EXTT10=
PLAYORDER=
